<?xml version="1.0" encoding="UTF-8" standalone="no"?>
<!DOCTYPE svg PUBLIC "-//W3C//DTD SVG 1.1//EN"
 "http://www.w3.org/Graphics/SVG/1.1/DTD/svg11.dtd">
<!-- Generated by graphviz version 2.43.0 (0)
 -->
<!-- Title: G Pages: 1 -->
<svg width="307pt" height="332pt"
 viewBox="0.00 0.00 307.23 332.00" xmlns="http://www.w3.org/2000/svg" xmlns:xlink="http://www.w3.org/1999/xlink">
<g id="graph0" class="graph" transform="scale(1 1) rotate(0) translate(4 328)">
<title>G</title>
<polygon fill="white" stroke="transparent" points="-4,4 -4,-328 303.23,-328 303.23,4 -4,4"/>
<!-- 0 -->
<g id="node1" class="node">
<title>0</title>
<ellipse fill="none" stroke="black" cx="160.23" cy="-306" rx="43.59" ry="18"/>
<text text-anchor="middle" x="160.23" y="-302.3" font-family="Times,serif" font-size="14.00">ENTRY</text>
</g>
<!-- 1 -->
<g id="node2" class="node">
<title>1</title>
<ellipse fill="none" stroke="black" cx="86.23" cy="-162" rx="27" ry="18"/>
<text text-anchor="middle" x="86.23" y="-158.3" font-family="Times,serif" font-size="14.00">1</text>
</g>
<!-- 0&#45;&gt;1 -->
<g id="edge1" class="edge">
<title>0&#45;&gt;1</title>
<path fill="none" stroke="black" d="M154.15,-288.15C147.32,-269.9 135.44,-240.18 122.23,-216 116.87,-206.19 110.17,-195.91 104.01,-187.05"/>
<polygon fill="black" stroke="black" points="106.74,-184.85 98.09,-178.73 101.03,-188.91 106.74,-184.85"/>
</g>
<!-- 2 -->
<g id="node3" class="node">
<title>2</title>
<ellipse fill="none" stroke="black" cx="40.23" cy="-90" rx="27" ry="18"/>
<text text-anchor="middle" x="40.23" y="-86.3" font-family="Times,serif" font-size="14.00">2</text>
</g>
<!-- 0&#45;&gt;2 -->
<g id="edge4" class="edge">
<title>0&#45;&gt;2</title>
<path fill="none" stroke="black" d="M122.95,-296.44C98.52,-288.87 67.94,-275.28 50.23,-252 20.73,-213.21 26.71,-152.77 33.57,-118.04"/>
<polygon fill="black" stroke="black" points="37.02,-118.64 35.69,-108.13 30.17,-117.18 37.02,-118.64"/>
</g>
<!-- 3 -->
<g id="node4" class="node">
<title>3</title>
<ellipse fill="none" stroke="black" cx="86.23" cy="-234" rx="27" ry="18"/>
<text text-anchor="middle" x="86.23" y="-230.3" font-family="Times,serif" font-size="14.00">3</text>
</g>
<!-- 0&#45;&gt;3 -->
<g id="edge6" class="edge">
<title>0&#45;&gt;3</title>
<path fill="none" stroke="black" d="M143.44,-289.12C133.18,-279.41 119.94,-266.89 108.78,-256.33"/>
<polygon fill="black" stroke="black" points="111.11,-253.72 101.44,-249.39 106.3,-258.81 111.11,-253.72"/>
</g>
<!-- 4 -->
<g id="node5" class="node">
<title>4</title>
<ellipse fill="none" stroke="black" cx="272.23" cy="-234" rx="27" ry="18"/>
<text text-anchor="middle" x="272.23" y="-230.3" font-family="Times,serif" font-size="14.00">4</text>
</g>
<!-- 0&#45;&gt;4 -->
<g id="edge7" class="edge">
<title>0&#45;&gt;4</title>
<path fill="none" stroke="black" d="M183.16,-290.67C200.95,-279.55 225.68,-264.09 244.57,-252.29"/>
<polygon fill="black" stroke="black" points="246.43,-255.25 253.05,-246.99 242.72,-249.32 246.43,-255.25"/>
</g>
<!-- 5 -->
<g id="node6" class="node">
<title>5</title>
<ellipse fill="none" stroke="black" cx="67.23" cy="-18" rx="27" ry="18"/>
<text text-anchor="middle" x="67.23" y="-14.3" font-family="Times,serif" font-size="14.00">5</text>
</g>
<!-- 0&#45;&gt;5 -->
<g id="edge10" class="edge">
<title>0&#45;&gt;5</title>
<path fill="none" stroke="black" d="M170.25,-288.35C193.34,-247.6 244.85,-141.16 198.23,-72 177.34,-41.02 134.95,-28.14 104.03,-22.79"/>
<polygon fill="black" stroke="black" points="104.45,-19.32 94.03,-21.25 103.38,-26.24 104.45,-19.32"/>
</g>
<!-- 6 -->
<g id="node7" class="node">
<title>6</title>
<ellipse fill="none" stroke="black" cx="156.23" cy="-90" rx="33.29" ry="18"/>
<text text-anchor="middle" x="156.23" y="-86.3" font-family="Times,serif" font-size="14.00">EXIT</text>
</g>
<!-- 0&#45;&gt;6 -->
<g id="edge13" class="edge">
<title>0&#45;&gt;6</title>
<path fill="none" stroke="black" d="M159.91,-287.85C159.22,-250.83 157.58,-163.18 156.74,-118.39"/>
<polygon fill="black" stroke="black" points="160.24,-118.17 156.55,-108.23 153.24,-118.3 160.24,-118.17"/>
</g>
<!-- 1&#45;&gt;2 -->
<g id="edge5" class="edge">
<title>1&#45;&gt;2</title>
<path fill="none" stroke="black" d="M75.79,-145.12C70.03,-136.34 62.75,-125.26 56.27,-115.42"/>
<polygon fill="black" stroke="black" points="59.04,-113.26 50.63,-106.82 53.19,-117.1 59.04,-113.26"/>
</g>
<!-- 1&#45;&gt;5 -->
<g id="edge11" class="edge">
<title>1&#45;&gt;5</title>
<path fill="none" stroke="black" d="M84.6,-143.9C82.82,-125.96 79.75,-96.94 76.23,-72 75.04,-63.55 73.55,-54.38 72.13,-46.08"/>
<polygon fill="black" stroke="black" points="75.56,-45.4 70.39,-36.15 68.67,-46.6 75.56,-45.4"/>
</g>
<!-- 1&#45;&gt;6 -->
<g id="edge12" class="edge">
<title>1&#45;&gt;6</title>
<path fill="none" stroke="black" d="M100.73,-146.5C110.23,-137 122.85,-124.38 133.65,-113.58"/>
<polygon fill="black" stroke="black" points="136.18,-116 140.77,-106.46 131.23,-111.05 136.18,-116"/>
</g>
<!-- 2&#45;&gt;5 -->
<g id="edge8" class="edge">
<title>2&#45;&gt;5</title>
<path fill="none" stroke="black" d="M46.63,-72.41C49.74,-64.34 53.56,-54.43 57.06,-45.35"/>
<polygon fill="black" stroke="black" points="60.36,-46.55 60.69,-35.96 53.82,-44.03 60.36,-46.55"/>
</g>
<!-- 3&#45;&gt;1 -->
<g id="edge2" class="edge">
<title>3&#45;&gt;1</title>
<path fill="none" stroke="black" d="M86.23,-215.7C86.23,-207.98 86.23,-198.71 86.23,-190.11"/>
<polygon fill="black" stroke="black" points="89.73,-190.1 86.23,-180.1 82.73,-190.1 89.73,-190.1"/>
</g>
<!-- 3&#45;&gt;2 -->
<g id="edge3" class="edge">
<title>3&#45;&gt;2</title>
<path fill="none" stroke="black" d="M73.02,-217.89C65.02,-207.85 55.4,-193.98 50.23,-180 42.91,-160.22 40.54,-136.42 39.93,-118.41"/>
<polygon fill="black" stroke="black" points="43.43,-118.23 39.75,-108.29 36.43,-118.35 43.43,-118.23"/>
</g>
<!-- 3&#45;&gt;5 -->
<g id="edge9" class="edge">
<title>3&#45;&gt;5</title>
<path fill="none" stroke="black" d="M70.71,-218.77C60.31,-208.67 46.82,-194.39 37.23,-180 17.7,-150.71 11.74,-142.39 4.23,-108 0.82,-92.37 -2.52,-86.51 4.23,-72 11.29,-56.84 25.05,-44.47 37.92,-35.5"/>
<polygon fill="black" stroke="black" points="40.13,-38.24 46.59,-29.84 36.3,-32.37 40.13,-38.24"/>
</g>
<!-- 3&#45;&gt;6 -->
<g id="edge14" class="edge">
<title>3&#45;&gt;6</title>
<path fill="none" stroke="black" d="M98.27,-217.37C105.8,-207.12 115.34,-193.22 122.23,-180 132.77,-159.8 141.81,-135.57 147.91,-117.5"/>
<polygon fill="black" stroke="black" points="151.27,-118.5 151.07,-107.9 144.62,-116.31 151.27,-118.5"/>
</g>
</g>
</svg>
